<?xml version="1.0" standalone="no"?>
<!DOCTYPE svg PUBLIC "-//W3C//DTD SVG 20010904//EN"
 "http://www.w3.org/TR/2001/REC-SVG-20010904/DTD/svg10.dtd">
<svg version="1.0" xmlns="http://www.w3.org/2000/svg"
 width="300.000000pt" height="247.000000pt" viewBox="0 0 300.000000 247.000000"
 preserveAspectRatio="xMidYMid meet">
<metadata>
Created by potrace 1.10, written by Peter Selinger 2001-2011
</metadata>
<g transform="translate(0.000000,247.000000) scale(0.100000,-0.100000)"
fill="#000000" stroke="none">
<path d="M782 1980 c-18 -4 -42 -16 -53 -26 -49 -44 -49 -43 -49 -541 0 -449
1 -469 20 -501 11 -18 34 -41 52 -52 32 -19 52 -20 636 -20 553 0 605 1 630
17 74 47 89 98 79 280 -3 57 -2 103 2 101 3 -2 26 -16 51 -31 134 -82 284
-167 295 -167 7 0 16 7 19 16 8 20 8 698 0 718 -6 16 -44 23 -44 8 0 -5 -19
-18 -42 -31 -49 -25 -79 -43 -194 -112 -45 -27 -83 -49 -85 -49 -2 0 -4 67 -4
149 l0 149 -31 39 c-17 21 -46 43 -65 50 -39 14 -1160 17 -1217 3z m1190 -32
c74 -22 82 -41 88 -202 5 -150 13 -176 52 -176 17 0 95 36 108 50 14 15 187
110 201 110 5 0 9 -123 9 -315 0 -270 -2 -315 -15 -315 -8 0 -54 23 -102 52
-150 89 -200 110 -224 95 -26 -16 -28 -27 -31 -179 -3 -125 -4 -128 -30 -153
-15 -14 -39 -30 -53 -35 -27 -10 -1078 -13 -1151 -3 -44 6 -83 33 -103 70 -8
16 -11 146 -11 473 l1 451 33 35 c18 19 46 39 62 43 46 14 1121 13 1166 -1z"/>
<path d="M866 1779 c-33 -38 -33 -79 -2 -116 l24 -28 270 0 c256 0 271 1 292
20 32 29 41 59 29 95 -20 56 -41 60 -328 60 l-259 0 -26 -31z m562 -15 c26
-18 29 -60 5 -86 -15 -17 -37 -18 -269 -18 -226 0 -256 2 -274 17 -27 23 -26
68 2 87 19 13 62 16 268 16 206 0 249 -3 268 -16z"/>
<path d="M1611 1784 c-50 -42 -40 -108 20 -140 36 -18 80 -7 111 28 l19 22 22
-27 c12 -15 37 -30 54 -33 28 -6 37 -2 63 26 21 23 30 42 30 66 0 19 -4 34
-10 34 -5 0 -10 5 -10 11 0 19 -33 38 -66 39 -21 0 -39 -9 -58 -29 l-27 -28
-31 28 c-38 36 -77 37 -117 3z m86 -12 c6 -4 16 -19 22 -34 8 -22 6 -31 -10
-52 -23 -30 -45 -33 -77 -10 -56 39 7 133 65 96z m187 -13 c14 -11 26 -26 26
-33 0 -25 -41 -66 -65 -66 -25 0 -55 33 -55 60 0 24 29 60 49 60 10 0 30 -9
45 -21z"/>
<path d="M894 1494 c-48 -25 -62 -65 -42 -117 20 -53 44 -57 307 -57 132 0
251 4 265 10 14 5 35 24 45 41 17 27 18 36 7 68 -23 65 -46 70 -317 70 -190 0
-241 -3 -265 -15z m544 -36 c16 -16 16 -70 0 -86 -9 -9 -84 -12 -276 -12 -240
0 -266 2 -278 18 -18 23 -17 52 3 74 15 17 37 18 278 18 190 0 264 -3 273 -12z"/>
<path d="M1820 1498 c-14 -5 -32 -19 -41 -30 l-17 -22 -32 27 c-47 40 -105 35
-133 -13 -21 -35 -22 -64 -2 -94 34 -52 104 -54 144 -4 l18 21 24 -27 c35 -37
91 -39 125 -3 60 65 -5 175 -86 145z m-110 -43 c7 -8 13 -26 13 -40 0 -35 -20
-55 -56 -55 -50 0 -74 54 -40 92 20 22 66 24 83 3z m185 -12 c16 -24 16 -30 4
-52 -12 -21 -22 -26 -54 -26 -34 0 -41 4 -49 27 -15 44 6 78 48 78 26 0 38 -6
51 -27z"/>
<path d="M1840 1200 c0 -6 -8 -10 -18 -10 -10 0 -29 -11 -42 -25 l-24 -25 -25
24 c-40 38 -90 38 -126 1 -33 -32 -32 -75 1 -114 34 -40 79 -42 124 -5 l31 27
28 -27 c71 -68 178 16 131 104 -11 21 -80 64 -80 50z m-140 -48 c43 -35 20
-102 -34 -102 -27 0 -56 29 -56 56 0 24 35 64 56 64 6 0 22 -8 34 -18z m185
-7 c29 -28 30 -37 9 -70 -30 -46 -104 -24 -104 31 0 27 32 64 55 64 9 0 27
-11 40 -25z"/>
<path d="M890 1183 c-61 -31 -65 -110 -8 -147 18 -12 64 -15 228 -17 320 -2
315 -3 345 26 33 34 34 84 1 122 l-24 28 -254 3 c-226 2 -257 1 -288 -15z
m548 -36 c20 -15 15 -75 -7 -87 -12 -6 -117 -10 -272 -10 -221 0 -255 2 -271
17 -20 18 -23 49 -8 73 8 12 52 16 262 20 257 5 273 4 296 -13z"/>
<path d="M1330 689 l0 -76 -67 1 -68 1 -3 -108 -3 -107 198 2 197 3 1 95 c0
52 -1 101 -4 108 -3 10 -21 13 -70 10 l-66 -3 0 74 0 74 -58 1 -57 1 0 -76z
m80 -17 c0 -61 22 -84 88 -92 l47 -5 3 -58 c2 -32 -2 -65 -8 -72 -8 -9 -47
-12 -156 -11 -160 1 -164 3 -164 66 0 67 8 80 52 80 58 0 88 24 88 70 0 51 8
70 31 70 16 0 19 -8 19 -48z"/>
<path d="M1634 551 c-2 -2 -4 -24 -4 -48 l0 -43 183 0 c165 0 186 2 200 18 20
22 22 46 4 60 -12 11 -373 22 -383 13z"/>
<path d="M618 526 c-9 -22 -8 -29 7 -46 35 -38 79 -16 73 37 -2 23 -8 29 -35
31 -27 3 -35 -1 -45 -22z"/>
<path d="M763 543 c-16 -6 -17 -55 -1 -71 8 -8 66 -12 195 -12 l183 0 0 45 0
45 -182 -1 c-101 0 -189 -3 -195 -6z"/>
<path d="M2082 538 c-25 -25 -4 -78 31 -78 18 0 47 32 47 51 0 21 -21 39 -45
39 -12 0 -26 -5 -33 -12z"/>
</g>
</svg>
